<mxfile host="app.diagrams.net" agent="Mozilla/5.0 (Macintosh; Intel Mac OS X 10_15_7) AppleWebKit/537.36 (KHTML, like Gecko) Chrome/135.0.0.0 Safari/537.36" version="26.2.14">
  <diagram name="Page-1" id="JqNY8BTypZa2bjlkMLGi">
    <mxGraphModel dx="1205" dy="1884" grid="1" gridSize="10" guides="1" tooltips="1" connect="1" arrows="1" fold="1" page="1" pageScale="1" pageWidth="850" pageHeight="1100" math="0" shadow="0">
      <root>
        <mxCell id="0" />
        <mxCell id="1" parent="0" />
        <mxCell id="mnfu5z3pjoMPdWj8_KTB-1" value="&lt;h1&gt;Facebook Post Search&lt;/h1&gt;" style="text;html=1;align=center;verticalAlign=middle;resizable=0;points=[];autosize=1;strokeColor=none;fillColor=none;" vertex="1" parent="1">
          <mxGeometry x="290" y="-12" width="280" height="70" as="geometry" />
        </mxCell>
        <mxCell id="mnfu5z3pjoMPdWj8_KTB-2" value="&lt;h2&gt;Functional Requirements&lt;/h2&gt;&lt;div&gt;&lt;ol&gt;&lt;li style=&quot;text-align: left;&quot;&gt;Users should be able to create &amp;amp; like posts&lt;/li&gt;&lt;li style=&quot;text-align: left;&quot;&gt;Users should be able to search by keyword&lt;/li&gt;&lt;li style=&quot;text-align: left;&quot;&gt;Users get search results by recency &amp;amp; like count&lt;/li&gt;&lt;/ol&gt;&lt;/div&gt;" style="text;html=1;align=center;verticalAlign=middle;resizable=0;points=[];autosize=1;strokeColor=none;fillColor=none;" vertex="1" parent="1">
          <mxGeometry y="58" width="320" height="120" as="geometry" />
        </mxCell>
        <mxCell id="mnfu5z3pjoMPdWj8_KTB-3" value="&lt;h2&gt;Non-Functional Requirements&lt;/h2&gt;&lt;div&gt;&lt;ol&gt;&lt;li style=&quot;text-align: left;&quot;&gt;median response &amp;lt; 500ms&lt;/li&gt;&lt;li style=&quot;text-align: left;&quot;&gt;eventual consistency&lt;/li&gt;&lt;li style=&quot;text-align: left;&quot;&gt;new posts searchable &amp;lt; 1min&lt;/li&gt;&lt;li style=&quot;text-align: left;&quot;&gt;all posts discoverable incl. old and unpopular&lt;/li&gt;&lt;/ol&gt;&lt;/div&gt;&lt;div style=&quot;text-align: left;&quot;&gt;&lt;br&gt;&lt;/div&gt;" style="text;html=1;align=center;verticalAlign=middle;resizable=0;points=[];autosize=1;strokeColor=none;fillColor=none;" vertex="1" parent="1">
          <mxGeometry x="510" y="50" width="300" height="150" as="geometry" />
        </mxCell>
        <mxCell id="mnfu5z3pjoMPdWj8_KTB-4" value="&lt;h2&gt;Out of Scope&lt;/h2&gt;&lt;div&gt;&lt;ul&gt;&lt;li style=&quot;text-align: left;&quot;&gt;fuzzy matching&lt;/li&gt;&lt;li style=&quot;text-align: left;&quot;&gt;personalization&lt;/li&gt;&lt;li style=&quot;text-align: left;&quot;&gt;privacy rules/settings&lt;/li&gt;&lt;li style=&quot;text-align: left;&quot;&gt;images &amp;amp; media&lt;/li&gt;&lt;/ul&gt;&lt;/div&gt;" style="text;html=1;align=center;verticalAlign=middle;resizable=0;points=[];autosize=1;strokeColor=none;fillColor=none;" vertex="1" parent="1">
          <mxGeometry x="320" y="58" width="180" height="130" as="geometry" />
        </mxCell>
        <mxCell id="mnfu5z3pjoMPdWj8_KTB-5" value="&lt;h2&gt;Scale Estimations&lt;/h2&gt;&lt;div&gt;&lt;br&gt;&lt;/div&gt;" style="text;html=1;align=center;verticalAlign=middle;resizable=0;points=[];autosize=1;strokeColor=none;fillColor=none;" vertex="1" parent="1">
          <mxGeometry x="330" y="178" width="180" height="80" as="geometry" />
        </mxCell>
        <mxCell id="mnfu5z3pjoMPdWj8_KTB-6" value="&lt;div style=&quot;text-align: left;&quot;&gt;writes:&amp;nbsp;&lt;/div&gt;&lt;div&gt;&lt;ul&gt;&lt;li&gt;posts =&amp;gt; 1B x 1 post/day /(100k seconds/day) = 10 posts/sec&lt;/li&gt;&lt;li&gt;&lt;span style=&quot;background-color: transparent; color: light-dark(rgb(0, 0, 0), rgb(255, 255, 255));&quot;&gt;likes: 1B x 10likes/day /(100k seconds/day) = 100k likes/sec&lt;/span&gt;&lt;/li&gt;&lt;/ul&gt;&lt;/div&gt;" style="text;html=1;align=center;verticalAlign=middle;resizable=0;points=[];autosize=1;strokeColor=none;fillColor=none;" vertex="1" parent="1">
          <mxGeometry x="30" y="230" width="390" height="80" as="geometry" />
        </mxCell>
        <mxCell id="mnfu5z3pjoMPdWj8_KTB-7" value="&lt;br&gt;&lt;div&gt;&lt;ul&gt;&lt;li&gt;reads: searches =&amp;gt; 1B * 1 search/day(100k seconds/day)&lt;/li&gt;&lt;li style=&quot;text-align: left;&quot;&gt;storage:posts =&amp;gt; 1B/day * 365 * 10 years =&amp;gt; 3.6PB&lt;/li&gt;&lt;/ul&gt;&lt;/div&gt;" style="text;html=1;align=center;verticalAlign=middle;resizable=0;points=[];autosize=1;strokeColor=none;fillColor=none;" vertex="1" parent="1">
          <mxGeometry x="425" y="230" width="370" height="80" as="geometry" />
        </mxCell>
        <mxCell id="mnfu5z3pjoMPdWj8_KTB-8" value="write heavy system" style="whiteSpace=wrap;html=1;shape=mxgraph.basic.oval_callout" vertex="1" parent="1">
          <mxGeometry x="120" y="200" width="100" height="60" as="geometry" />
        </mxCell>
        <mxCell id="mnfu5z3pjoMPdWj8_KTB-9" value="&lt;h2&gt;Core Entities&lt;/h2&gt;&lt;div&gt;User | Post | Like&lt;/div&gt;" style="text;html=1;align=center;verticalAlign=middle;resizable=0;points=[];autosize=1;strokeColor=none;fillColor=none;" vertex="1" parent="1">
          <mxGeometry x="345" y="290" width="130" height="80" as="geometry" />
        </mxCell>
        <mxCell id="mnfu5z3pjoMPdWj8_KTB-10" value="&lt;h2&gt;API&lt;/h2&gt;" style="text;html=1;align=center;verticalAlign=middle;resizable=0;points=[];autosize=1;strokeColor=none;fillColor=none;" vertex="1" parent="1">
          <mxGeometry x="385" y="353" width="50" height="60" as="geometry" />
        </mxCell>
        <mxCell id="mnfu5z3pjoMPdWj8_KTB-11" value="POST /post {title, content} -&amp;gt; Post || POST /post/like/:postId || GET /posts/search?query={}&amp;amp;filters...&amp;amp;page={]limit={}" style="text;html=1;align=center;verticalAlign=middle;resizable=0;points=[];autosize=1;strokeColor=none;fillColor=none;" vertex="1" parent="1">
          <mxGeometry x="105" y="390" width="630" height="30" as="geometry" />
        </mxCell>
        <mxCell id="mnfu5z3pjoMPdWj8_KTB-12" value="&lt;h2&gt;High Level Design&lt;/h2&gt;" style="text;html=1;align=center;verticalAlign=middle;resizable=0;points=[];autosize=1;strokeColor=none;fillColor=none;" vertex="1" parent="1">
          <mxGeometry x="330" y="403" width="180" height="60" as="geometry" />
        </mxCell>
        <mxCell id="mnfu5z3pjoMPdWj8_KTB-15" value="" style="edgeStyle=orthogonalEdgeStyle;rounded=0;orthogonalLoop=1;jettySize=auto;html=1;" edge="1" parent="1" source="mnfu5z3pjoMPdWj8_KTB-16">
          <mxGeometry relative="1" as="geometry">
            <mxPoint x="357.5" y="488" as="targetPoint" />
          </mxGeometry>
        </mxCell>
        <mxCell id="mnfu5z3pjoMPdWj8_KTB-14" value="Post Service" style="shape=process;whiteSpace=wrap;html=1;backgroundOutline=1;" vertex="1" parent="1">
          <mxGeometry x="167.5" y="473" width="100" height="30" as="geometry" />
        </mxCell>
        <mxCell id="mnfu5z3pjoMPdWj8_KTB-17" value="" style="edgeStyle=orthogonalEdgeStyle;rounded=0;orthogonalLoop=1;jettySize=auto;html=1;" edge="1" parent="1" source="mnfu5z3pjoMPdWj8_KTB-14" target="mnfu5z3pjoMPdWj8_KTB-16">
          <mxGeometry relative="1" as="geometry">
            <mxPoint x="267.5" y="488" as="sourcePoint" />
            <mxPoint x="357.5" y="488" as="targetPoint" />
          </mxGeometry>
        </mxCell>
        <mxCell id="mnfu5z3pjoMPdWj8_KTB-16" value="" style="outlineConnect=0;dashed=0;verticalLabelPosition=bottom;verticalAlign=top;align=center;html=1;shape=mxgraph.aws3.classic_load_balancer;fillColor=#F58536;gradientColor=none;" vertex="1" parent="1">
          <mxGeometry x="307.5" y="463" width="40" height="50" as="geometry" />
        </mxCell>
        <mxCell id="mnfu5z3pjoMPdWj8_KTB-20" value="" style="edgeStyle=orthogonalEdgeStyle;rounded=0;orthogonalLoop=1;jettySize=auto;html=1;entryX=0;entryY=0.5;entryDx=0;entryDy=0;entryPerimeter=0;" edge="1" parent="1" source="mnfu5z3pjoMPdWj8_KTB-18" target="mnfu5z3pjoMPdWj8_KTB-21">
          <mxGeometry relative="1" as="geometry">
            <mxPoint x="547.5" y="480" as="targetPoint" />
          </mxGeometry>
        </mxCell>
        <mxCell id="mnfu5z3pjoMPdWj8_KTB-18" value="Event Writer" style="shape=process;whiteSpace=wrap;html=1;backgroundOutline=1;" vertex="1" parent="1">
          <mxGeometry x="367.5" y="463" width="110" height="47" as="geometry" />
        </mxCell>
        <mxCell id="mnfu5z3pjoMPdWj8_KTB-24" value="" style="edgeStyle=orthogonalEdgeStyle;rounded=0;orthogonalLoop=1;jettySize=auto;html=1;" edge="1" parent="1" source="mnfu5z3pjoMPdWj8_KTB-21" target="mnfu5z3pjoMPdWj8_KTB-23">
          <mxGeometry relative="1" as="geometry" />
        </mxCell>
        <mxCell id="mnfu5z3pjoMPdWj8_KTB-21" value="" style="points=[];aspect=fixed;html=1;align=center;shadow=0;dashed=0;fillColor=#FF6A00;strokeColor=none;shape=mxgraph.alibaba_cloud.kafka;" vertex="1" parent="1">
          <mxGeometry x="547.5" y="465.5" width="56.699999999999996" height="42" as="geometry" />
        </mxCell>
        <mxCell id="mnfu5z3pjoMPdWj8_KTB-22" value="Kafka" style="text;html=1;align=center;verticalAlign=middle;resizable=0;points=[];autosize=1;strokeColor=none;fillColor=none;" vertex="1" parent="1">
          <mxGeometry x="564.2" y="433" width="50" height="30" as="geometry" />
        </mxCell>
        <mxCell id="mnfu5z3pjoMPdWj8_KTB-27" value="" style="edgeStyle=orthogonalEdgeStyle;rounded=0;orthogonalLoop=1;jettySize=auto;html=1;" edge="1" parent="1" source="mnfu5z3pjoMPdWj8_KTB-23" target="mnfu5z3pjoMPdWj8_KTB-26">
          <mxGeometry relative="1" as="geometry" />
        </mxCell>
        <mxCell id="mnfu5z3pjoMPdWj8_KTB-28" style="edgeStyle=orthogonalEdgeStyle;rounded=0;orthogonalLoop=1;jettySize=auto;html=1;exitX=0.25;exitY=1;exitDx=0;exitDy=0;" edge="1" parent="1" source="mnfu5z3pjoMPdWj8_KTB-23" target="mnfu5z3pjoMPdWj8_KTB-25">
          <mxGeometry relative="1" as="geometry" />
        </mxCell>
        <mxCell id="mnfu5z3pjoMPdWj8_KTB-23" value="Ingestion Service" style="shape=process;whiteSpace=wrap;html=1;backgroundOutline=1;" vertex="1" parent="1">
          <mxGeometry x="637.5" y="468" width="110" height="37" as="geometry" />
        </mxCell>
        <mxCell id="mnfu5z3pjoMPdWj8_KTB-25" value="" style="outlineConnect=0;dashed=0;verticalLabelPosition=bottom;verticalAlign=top;align=center;html=1;shape=mxgraph.aws3.redis;fillColor=#2E73B8;gradientColor=none;" vertex="1" parent="1">
          <mxGeometry x="647.5" y="530" width="40" height="30" as="geometry" />
        </mxCell>
        <mxCell id="mnfu5z3pjoMPdWj8_KTB-26" value="" style="sketch=0;outlineConnect=0;fontColor=#232F3E;gradientColor=none;fillColor=#232F3D;strokeColor=none;dashed=0;verticalLabelPosition=bottom;verticalAlign=top;align=center;html=1;fontSize=12;fontStyle=0;aspect=fixed;pointerEvents=1;shape=mxgraph.aws4.cold_storage;" vertex="1" parent="1">
          <mxGeometry x="720.19" y="530" width="27.31" height="30" as="geometry" />
        </mxCell>
        <mxCell id="mnfu5z3pjoMPdWj8_KTB-29" value="Redis" style="text;html=1;align=center;verticalAlign=middle;resizable=0;points=[];autosize=1;strokeColor=none;fillColor=none;" vertex="1" parent="1">
          <mxGeometry x="642.5" y="560" width="50" height="30" as="geometry" />
        </mxCell>
        <mxCell id="mnfu5z3pjoMPdWj8_KTB-30" value="Cold Storage" style="text;html=1;align=center;verticalAlign=middle;resizable=0;points=[];autosize=1;strokeColor=none;fillColor=none;" vertex="1" parent="1">
          <mxGeometry x="682.5" y="558" width="90" height="30" as="geometry" />
        </mxCell>
        <mxCell id="mnfu5z3pjoMPdWj8_KTB-32" style="edgeStyle=orthogonalEdgeStyle;rounded=0;orthogonalLoop=1;jettySize=auto;html=1;" edge="1" parent="1" source="mnfu5z3pjoMPdWj8_KTB-31" target="mnfu5z3pjoMPdWj8_KTB-16">
          <mxGeometry relative="1" as="geometry" />
        </mxCell>
        <mxCell id="mnfu5z3pjoMPdWj8_KTB-31" value="Like Service" style="shape=process;whiteSpace=wrap;html=1;backgroundOutline=1;" vertex="1" parent="1">
          <mxGeometry x="167.5" y="513" width="100" height="30" as="geometry" />
        </mxCell>
        <mxCell id="mnfu5z3pjoMPdWj8_KTB-37" value="" style="edgeStyle=orthogonalEdgeStyle;rounded=0;orthogonalLoop=1;jettySize=auto;html=1;" edge="1" parent="1" source="mnfu5z3pjoMPdWj8_KTB-33" target="mnfu5z3pjoMPdWj8_KTB-36">
          <mxGeometry relative="1" as="geometry" />
        </mxCell>
        <mxCell id="mnfu5z3pjoMPdWj8_KTB-51" style="edgeStyle=orthogonalEdgeStyle;rounded=0;orthogonalLoop=1;jettySize=auto;html=1;exitX=0.5;exitY=0;exitDx=0;exitDy=0;entryX=1;entryY=0.75;entryDx=0;entryDy=0;" edge="1" parent="1" source="mnfu5z3pjoMPdWj8_KTB-33" target="mnfu5z3pjoMPdWj8_KTB-31">
          <mxGeometry relative="1" as="geometry" />
        </mxCell>
        <mxCell id="mnfu5z3pjoMPdWj8_KTB-33" value="Search Service" style="shape=process;whiteSpace=wrap;html=1;backgroundOutline=1;" vertex="1" parent="1">
          <mxGeometry x="280.5" y="558" width="100" height="30" as="geometry" />
        </mxCell>
        <mxCell id="mnfu5z3pjoMPdWj8_KTB-35" value="" style="outlineConnect=0;dashed=0;verticalLabelPosition=bottom;verticalAlign=top;align=center;html=1;shape=mxgraph.aws3.redis;fillColor=#2E73B8;gradientColor=none;" vertex="1" parent="1">
          <mxGeometry x="420.5" y="550" width="40" height="30" as="geometry" />
        </mxCell>
        <mxCell id="mnfu5z3pjoMPdWj8_KTB-36" value="Redis" style="text;html=1;align=center;verticalAlign=middle;resizable=0;points=[];autosize=1;strokeColor=none;fillColor=none;" vertex="1" parent="1">
          <mxGeometry x="415.5" y="580" width="50" height="30" as="geometry" />
        </mxCell>
        <mxCell id="mnfu5z3pjoMPdWj8_KTB-38" value="Actor" style="shape=umlActor;verticalLabelPosition=bottom;verticalAlign=top;html=1;outlineConnect=0;" vertex="1" parent="1">
          <mxGeometry x="107.5" y="520" width="20" height="20" as="geometry" />
        </mxCell>
        <mxCell id="mnfu5z3pjoMPdWj8_KTB-39" value="Client" style="text;html=1;align=center;verticalAlign=middle;whiteSpace=wrap;rounded=0;fillColor=#f5f5f5;fontColor=#333333;strokeColor=#666666;" vertex="1" parent="1">
          <mxGeometry x="87.5" y="540" width="60" height="30" as="geometry" />
        </mxCell>
        <mxCell id="mnfu5z3pjoMPdWj8_KTB-42" value="" style="points=[];aspect=fixed;html=1;align=center;shadow=0;dashed=0;fillColor=#FF6A00;strokeColor=none;shape=mxgraph.alibaba_cloud.cdn_content_distribution_network;" vertex="1" parent="1">
          <mxGeometry x="96.5" y="461" width="34.96" height="29" as="geometry" />
        </mxCell>
        <mxCell id="mnfu5z3pjoMPdWj8_KTB-43" value="CDN" style="text;html=1;align=center;verticalAlign=middle;resizable=0;points=[];autosize=1;strokeColor=none;fillColor=none;" vertex="1" parent="1">
          <mxGeometry x="88.98" y="431" width="50" height="30" as="geometry" />
        </mxCell>
        <mxCell id="mnfu5z3pjoMPdWj8_KTB-49" style="edgeStyle=orthogonalEdgeStyle;rounded=0;orthogonalLoop=1;jettySize=auto;html=1;entryX=0;entryY=0.5;entryDx=0;entryDy=0;" edge="1" parent="1" source="mnfu5z3pjoMPdWj8_KTB-46" target="mnfu5z3pjoMPdWj8_KTB-33">
          <mxGeometry relative="1" as="geometry" />
        </mxCell>
        <mxCell id="mnfu5z3pjoMPdWj8_KTB-46" value="" style="points=[];aspect=fixed;html=1;align=center;shadow=0;dashed=0;fillColor=#FF6A00;strokeColor=none;shape=mxgraph.alibaba_cloud.apigateway;" vertex="1" parent="1">
          <mxGeometry x="177.5" y="558" width="43.199999999999996" height="41.699999999999996" as="geometry" />
        </mxCell>
        <mxCell id="mnfu5z3pjoMPdWj8_KTB-47" value="API GW" style="text;html=1;align=center;verticalAlign=middle;resizable=0;points=[];autosize=1;strokeColor=none;fillColor=none;" vertex="1" parent="1">
          <mxGeometry x="162.5" y="598" width="70" height="30" as="geometry" />
        </mxCell>
        <mxCell id="mnfu5z3pjoMPdWj8_KTB-48" style="edgeStyle=orthogonalEdgeStyle;rounded=0;orthogonalLoop=1;jettySize=auto;html=1;entryX=0.185;entryY=0.288;entryDx=0;entryDy=0;entryPerimeter=0;" edge="1" parent="1" source="mnfu5z3pjoMPdWj8_KTB-39" target="mnfu5z3pjoMPdWj8_KTB-46">
          <mxGeometry relative="1" as="geometry" />
        </mxCell>
        <mxCell id="mnfu5z3pjoMPdWj8_KTB-52" value="&lt;h2&gt;Deep Dives&lt;/h2&gt;" style="text;html=1;align=center;verticalAlign=middle;resizable=0;points=[];autosize=1;strokeColor=none;fillColor=none;" vertex="1" parent="1">
          <mxGeometry x="350" y="610" width="120" height="60" as="geometry" />
        </mxCell>
        <mxCell id="mnfu5z3pjoMPdWj8_KTB-53" value="&lt;ol&gt;&lt;li style=&quot;text-align: left;&quot;&gt;Large volume of requests: Redis cache (search/ingestion) + CDN (Cache-control header)&lt;/li&gt;&lt;li style=&quot;text-align: left;&quot;&gt;Multikey word/phrase searches: index bigrams in Ingestion Service. Only index popular keywords keyword-&amp;gt;[postIds].&lt;/li&gt;&lt;li style=&quot;text-align: left;&quot;&gt;Large volume of writes: LB + Kafka fan out to Ingestion workers. For likes update when counts reach power of 10 (e.g. 100 likes, 1k+, 10k+)&amp;nbsp;&lt;/li&gt;&lt;li style=&quot;text-align: left;&quot;&gt;Optimize storage: limits on inverted indices. Batch to move rarely use indexes to cold storage. Check indexes in local Redis, then in cold storage.&lt;/li&gt;&lt;/ol&gt;" style="text;html=1;align=center;verticalAlign=middle;resizable=0;points=[];autosize=1;strokeColor=none;fillColor=none;" vertex="1" parent="1">
          <mxGeometry y="645" width="830" height="100" as="geometry" />
        </mxCell>
      </root>
    </mxGraphModel>
  </diagram>
</mxfile>
